<svg width="28" height="28" viewBox="0 0 28 28" fill="none" xmlns="http://www.w3.org/2000/svg">
<path d="M14.4933 2.82807C14.1084 2.44313 13.4843 2.44313 13.0993 2.82807L2.62281 13.3046C2.53125 13.3961 2.45861 13.5048 2.40905 13.6243C2.35949 13.7439 2.33398 13.8721 2.33398 14.0016C2.33398 14.131 2.35949 14.2592 2.40905 14.3788C2.45861 14.4984 2.53125 14.6071 2.62281 14.6986L13.0992 25.175C13.4842 25.56 14.1084 25.5599 14.4934 25.1749C14.8783 24.7899 14.8783 24.1658 14.4933 23.7809L5.6999 14.9875L24.6814 14.9875C25.2259 14.9875 25.6673 14.5461 25.6673 14.0016C25.6673 13.4571 25.2259 13.0157 24.6814 13.0157L5.6999 13.0157L14.4933 4.22204C14.8783 3.8371 14.8782 3.213 14.4933 2.82807Z" fill="white"/>
</svg>
