<svg width="28" height="28" viewBox="0 0 28 28" fill="none" xmlns="http://www.w3.org/2000/svg">
<path d="M13.5077 25.1739C13.8926 25.5588 14.5167 25.5588 14.9016 25.1739L25.3782 14.6974C25.4697 14.6059 25.5424 14.4972 25.5919 14.3776C25.6415 14.258 25.667 14.1298 25.667 14.0004C25.667 13.8709 25.6415 13.7427 25.5919 13.6231C25.5424 13.5036 25.4697 13.3949 25.3782 13.3034L14.9018 2.82699C14.5168 2.442 13.8926 2.44203 13.5076 2.82706C13.1227 3.21204 13.1227 3.83615 13.5077 4.22109L22.3011 13.0145L3.31953 13.0145C2.77505 13.0145 2.33366 13.4559 2.33366 14.0004C2.33366 14.5449 2.77505 14.9863 3.31953 14.9863L22.3011 14.9863L13.5077 23.7799C13.1227 24.1649 13.1227 24.789 13.5077 25.1739Z" fill="white"/>
</svg>
