<svg width="16" height="16" viewBox="0 0 16 16" fill="none" xmlns="http://www.w3.org/2000/svg">
<path d="M8.28217 1.61618C8.06221 1.39621 7.70558 1.39621 7.48561 1.61618L1.49903 7.60276C1.44671 7.65505 1.4052 7.71714 1.37688 7.78548C1.34856 7.85382 1.33398 7.92707 1.33398 8.00104C1.33398 8.07501 1.34856 8.14826 1.37688 8.2166C1.4052 8.28494 1.44671 8.34703 1.49903 8.39932L7.48554 14.3858C7.70554 14.6058 8.06223 14.6058 8.28221 14.3858C8.50215 14.1658 8.50214 13.8092 8.28217 13.5892L3.25736 8.5644H14.104C14.4151 8.5644 14.6673 8.31217 14.6673 8.00104C14.6673 7.68991 14.4151 7.43768 14.104 7.43768L3.25736 7.43768L8.28218 2.41273C8.50214 2.19277 8.50214 1.83614 8.28217 1.61618Z" fill="#4D4D4D"/>
</svg>
