<svg width="32" height="32" viewBox="0 0 32 32" fill="none" xmlns="http://www.w3.org/2000/svg">
<path d="M5.14296 14.377C12.7177 11.0447 22.5193 6.98214 23.8728 6.41972C27.4217 4.94812 28.5108 5.22987 27.9679 8.48949C27.5778 10.8323 26.4529 18.588 25.5557 23.4157C25.0236 26.2787 23.8294 26.6179 21.9525 25.3793C21.0499 24.7833 16.4931 21.7696 15.5037 21.062C14.6011 20.4172 13.3559 19.6413 14.9175 18.1134C15.4734 17.5694 19.1155 14.0909 21.9536 11.3839C22.3253 11.0285 21.8583 10.4444 21.4291 10.7294C17.6039 13.2662 12.3005 16.787 11.6254 17.2454C10.6056 17.9378 9.62602 18.2554 7.86834 17.7504C6.53978 17.3689 5.24265 16.9138 4.73767 16.7404C2.79252 16.0729 3.25415 15.2081 5.14296 14.377Z" fill="white"/>
</svg>
