<svg width="32" height="32" viewBox="0 0 32 32" fill="none" xmlns="http://www.w3.org/2000/svg">
<g clip-path="url(#clip0_2210_13648)">
<rect width="32" height="32" rx="13.2" fill="white"/>
<path fill-rule="evenodd" clip-rule="evenodd" d="M-1.18571 -1.18571C-4 1.62857 -4 6.14286 -4 15.2V16.8C-4 25.8571 -4 30.3714 -1.18571 33.1857C1.62857 36 6.14286 36 15.2 36H16.8C25.8571 36 30.3714 36 33.1857 33.1857C36 30.3714 36 25.8571 36 16.8V15.2C36 6.14286 36 1.62857 33.1857 -1.18571C30.3714 -4 25.8571 -4 16.8 -4H15.2C6.14286 -4 1.62857 -4 -1.18571 -1.18571ZM2.64286 8.5C2.87143 18.9 8.34286 25.1714 17.3571 25.1714H17.8857V19.2143C21.1714 19.5429 23.6286 22 24.6286 25.1714H29.3714C28.9023 23.3868 28.0635 21.7207 26.9093 20.281C25.7551 18.8414 24.3113 17.6603 22.6714 16.8143C24.1387 15.8909 25.4014 14.6768 26.3817 13.2469C27.362 11.817 28.0391 10.2015 28.3714 8.5H24.0571C23.1429 11.8143 20.4571 14.8143 17.8857 15.1V8.5H13.5V20.0429C10.8429 19.3857 7.35714 16.1429 7.21429 8.5H2.64286Z" fill="#1976D2"/>
</g>
<defs>
<clipPath id="clip0_2210_13648">
<rect width="32" height="32" rx="13.2" fill="white"/>
</clipPath>
</defs>
</svg>
